<svg width="25" height="28" viewBox="0 0 25 28" fill="none" xmlns="http://www.w3.org/2000/svg">
<path d="M18.5655 7.66154C17.8452 11.0565 15.3821 13.5672 12.456 13.5672C9.52977 13.5672 7.06191 11.0472 6.34405 7.65221C5.89538 7.51445 5.503 7.24053 5.22354 6.86999C4.94408 6.49945 4.79201 6.05146 4.78929 5.59071V5.58954C4.78929 4.39021 5.77976 3.41837 7.00238 3.41487C7.58988 3.41549 8.15315 3.6444 8.56869 4.0514C8.98422 4.45841 9.21811 5.01029 9.21905 5.58604C9.21829 5.91708 9.13984 6.24351 8.98976 6.54008C8.83969 6.83666 8.62201 7.09543 8.35357 7.29637L8.34881 7.29987C8.87381 9.75687 10.5131 11.557 12.4524 11.557C14.3917 11.557 16.0405 9.74754 16.5595 7.28004C16.2973 7.07877 16.085 6.82189 15.9386 6.5287C15.7923 6.2355 15.7155 5.91362 15.7143 5.58721C15.7149 5.01146 15.9485 4.45945 16.3638 4.05223C16.7791 3.645 17.3423 3.4158 17.9298 3.41487C18.4609 3.41299 18.9749 3.59844 19.378 3.93733C19.7811 4.27622 20.0463 4.74593 20.1251 5.26063C20.204 5.77532 20.0913 6.30065 19.8075 6.74061C19.5238 7.18058 19.088 7.50581 18.5798 7.65687L18.5643 7.66037L18.5655 7.66154ZM24.5833 27.1682L23.2238 0.639373C23.2153 0.468 23.1398 0.306411 23.013 0.188054C22.8863 0.0696974 22.7179 0.0036345 22.5429 0.00354004H2.04762C1.87293 0.00360401 1.70493 0.0693438 1.57823 0.187209C1.45154 0.305073 1.37581 0.46608 1.36667 0.63704V0.638207L0.00119149 27.3L1.01769e-06 27.3315C-0.000305119 27.5049 0.0684675 27.6715 0.191668 27.7959C0.316668 27.9242 0.491668 28.0035 0.685715 28.0035H23.9238C24.105 28.0035 24.2789 27.933 24.407 27.8074C24.5352 27.6818 24.6071 27.5115 24.6071 27.3339V27.3327C24.6074 27.2757 24.6002 27.2188 24.5857 27.1635L24.5869 27.1682H24.5833Z" fill="black"/>
</svg>
